/* XPM */
static char * CurveTracer_xpm[] = {
(char *)"32 32 6 1",
(char *)" 	c None",
(char *)".	c #008080",
(char *)"+	c #800000",
(char *)"@	c #00FFFF",
(char *)"#	c #C0C0C0",
(char *)"$	c #FFFFFF",
(char *)"                                ",
(char *)"                                ",
(char *)"           ...++++..            ",
(char *)"         .++++++++++++.         ",
(char *)"        ++++++++++++++++        ",
(char *)"      .++++++++++++++++++.      ",
(char *)"     .+++++@++++++++++++++.     ",
(char *)"    .+++++#$$#+++++++++++++     ",
(char *)"    +++++#$+#$++++++++++++++    ",
(char *)"   .++++#$@++##+++++++++++++.   ",
(char *)"   +++++$#++++$++++++++++++++   ",
(char *)"  .+++++$@++++$#+++++++++++++.  ",
(char *)"  +++++#$+++++##+++++++++++++.  ",
(char *)"  +++++##++++++$++++++++++++++  ",
(char *)"  +++++##++++++$++++++++++++++  ",
(char *)" .+++++##++++++##+++++##++++++. ",
(char *)" .+++++++++++++##+++++##++++++. ",
(char *)"  +++++++++++++#$+++++##++++++. ",
(char *)"  ++++++++++++++$+++++##++++++  ",
(char *)"  ++++++++++++++$#+++@$+++++++  ",
(char *)"  .+++++++++++++#$+++#$++++++.  ",
(char *)"   ++++++++++++++$+++$#++++++   ",
(char *)"   .+++++++++++++#$#$#++++++.   ",
(char *)"    ++++++++++++++###+++++++    ",
(char *)"    .++++++++++++++++++++++     ",
(char *)"     .++++++++++++++++++++.     ",
(char *)"      .++++++++++++++++++.      ",
(char *)"        +++++++++++++++@        ",
(char *)"         .++++++++++++.         ",
(char *)"           ...++++..            ",
(char *)"                                ",
(char *)"                                "};
